<svg version="1.2" xmlns="http://www.w3.org/2000/svg" viewBox="0 0 37 33" width="37" height="33">
	<title>logo-mini-svg</title>
	<style>
		.s0 { fill: #ef7800 } 
		.s1 { fill: #000000 } 
	</style>
	<path class="s0" d="m-210.8 5.9l1.9 26.7h7.4l5.6-13.3-0.1 13.3h7.5l12.7-26.7h-7.9l-6.5 15.9-0.2-15.9h-6.1l-6.5 15.9-0.3-15.9z"/>
	<path class="s0" d="m-147.8 7.1h-6.9l-1 4.9h6.9z"/>
	<path class="s0" d="m-160 32.6h6.9l3.8-18.8h-6.9z"/>
	<path fill-rule="evenodd" class="s0" d="m-168.5 27h6.7c-0.5 1.2-2 5.9-9.9 5.9-6.4 0-8.9-3.8-8.9-8.2 0-8.3 6.4-11.3 11-11.3 4 0 8.9 2.5 8.9 8.2 0 1-0.1 2-0.4 3.1h-13c0 2 0.7 3.6 2.9 3.6 1.5 0 2.4-0.7 2.7-1.3zm1.2-5.9c0-0.2 0.1-0.4 0.1-0.6 0-1.3-0.9-2.4-2.7-2.4-1.8 0-3.1 1.1-3.6 3z"/>
	<path fill-rule="evenodd" class="s0" d="m-125.1 5.9l-5.5 26.7h-6.8l0.4-2.4c-1.2 1.7-2.8 2.6-4.9 2.6-5.9 0-6.7-5.3-6.7-7.5 0-6.9 3.7-11.6 9.1-11.6 2.1 0 4.1 0.6 5.3 2.6l2-9.9 0.1-0.5zm-12.9 12.6c-2.7 0-3.6 3.4-3.6 6 0 1.6 0.7 3 2.5 3 2.7 0 3.6-3.5 3.6-5.7 0-2-0.7-3.3-2.5-3.3z"/>
	<path class="s0" d="m-126.8 32.6h6.9l2.3-10.7c0.3-1.6 1.2-2.7 2.9-2.7 1.1 0 1.7 0.5 1.7 1.7 0 0.4-0.1 1.2-0.2 1.6l-2.2 10.1h7l2.4-11.3c0.3-1.3 1.2-2.1 2.6-2.1 1.1 0 1.8 0.6 1.8 1.7 0 0.6-0.3 2.3-0.4 2.7l-1.9 9h7l2.2-10.7c0.1-0.8 0.4-2 0.4-2.8 0-3.8-2.2-5.6-5.8-5.6-2.4 0-4.5 1.3-6 3.2-0.4-2.3-2.5-3.2-4.8-3.2-2.4 0-4.4 1.3-5.8 3h-0.1l0.5-2.7h-6.7l-3.8 18.8z"/>
	<path class="s0" d="m-70.9 13.8h-6.9l-1.6 7.7c-0.6 2.3-0.7 5.7-3.8 5.7-1.1 0-2-0.6-2-1.7 0 0 0-1 0.2-1.9l2.1-9.8h-6.9c-2.2 10-2.8 12.5-2.8 14.1 0 3.4 2.5 5 5.6 5 2.4 0 4.6-1.2 6.1-3l-0.5 2.7h6.7z"/>
	<path class="s0" d="m-87.3 11.9h6.2l1-4.7h-6.2z"/>
	<path class="s0" d="m-78.7 11.9h6.2l1-4.7h-6.2z"/>
	<path class="s0" d="m-65.5 5.9h7l-5.5 26.7h-7z"/>
	<path class="s0" d="m-54.7 5.9h7.1l-5.5 26.7h-7z"/>
	<path fill-rule="evenodd" class="s0" d="m-29.8 27c-0.4 1.2-2 5.9-9.8 5.9-6.5 0-8.9-3.8-8.9-8.2 0-8.3 6.4-11.2 10.9-11.2 4 0 8.9 2.4 8.9 8.1 0 1 0 2.1-0.3 3.2h-13c0 1.9 0.6 3.5 2.8 3.5 1.5 0 2.4-0.7 2.8-1.3zm-5.5-5.8c0-0.2 0-0.4 0-0.6 0-1.4-0.9-2.5-2.6-2.5-1.9 0-3.1 1.2-3.6 3.1z"/>
	<path class="s0" d="m-28 32.6h6.9l1.6-7.9c0.8-3.8 2.3-5 5.2-5 0.9 0 1.9 0.1 2.7 0.4l1.3-6.4c-0.6-0.3-1.3-0.3-2.4-0.3-1.8 0-4.1 1.3-5.4 3.3v0.3l0.6-3.2h-6.8l-3.7 18.8z"/>
	<g id="Folder 1">
		<path class="s1" d="m2.9 5.3h8.7c0.9 0 1.3 0.3 2 1.2 0.3 0.3 0.8 0.9 1.5 1.8l3.4-4.2c-1.2-1.4-2-2.4-2-2.4-0.9-1.1-1.8-1.8-3.5-1.8h-10.1c-1.4 0-2.8 0.9-2.8 2.7 0 1.8 1.4 2.7 2.8 2.7z"/>
		<path class="s0" d="m34.1 27.3h-8.7c-0.9 0-1.3-0.3-2-1.1-0.2-0.4-0.8-1-1.5-1.9l-3.4 4.2c1.2 1.4 2 2.5 2 2.5 0.9 1 1.8 1.7 3.5 1.7h10.1c1.4 0 2.8-0.9 2.8-2.7 0-1.8-1.4-2.7-2.8-2.7z"/>
		<path class="s0" d="m16.8 18.1c-0.6-0.7-0.9-1.3-0.9-1.8q0-0.8 0.9-1.8c0.1 0 5.6-6.9 6.6-8 0.7-0.9 1.1-1.2 2-1.2h8.7c1.4 0 2.8-0.9 2.8-2.7 0-1.8-1.4-2.7-2.8-2.7h-10.1c-1.7 0-2.6 0.7-3.5 1.7 0 0-7.7 9.5-8.5 10.4-1.1 1.2-1.6 1.6-3.5 1.6h-5.6c-1.4 0-2.8 0.9-2.8 2.7 0 1.8 1.4 2.7 2.8 2.7h5.6c1.9 0 2.4 0.4 3.5 1.6 0.3 0.3 1.6 1.9 3.1 3.7l3.4-4.1c-0.9-1.2-1.7-2.1-1.7-2.1z"/>
		<path class="s1" d="m34.1 13.6h-5.6c-1.8 0-2.4-0.4-3.4-1.5-0.3-0.4-1.7-2-3.2-3.8l-3.4 4.1c1 1.2 1.7 2.1 1.7 2.1q0.9 1 0.9 1.8c0 0.5-0.3 1.1-0.9 1.8-0.1 0-5.6 6.9-6.6 8.1-0.7 0.8-1.1 1.1-2 1.1h-8.7c-1.4 0-2.8 0.9-2.8 2.7 0 1.8 1.4 2.7 2.8 2.7h10.1c1.7 0 2.6-0.7 3.5-1.7 0 0 7.7-9.6 8.6-10.4 1-1.2 1.6-1.6 3.4-1.6h5.6c1.4 0 2.8-0.9 2.8-2.7 0-1.8-1.4-2.7-2.8-2.7z"/>
	</g>
</svg>