<svg width="249" height="34" viewBox="0 0 249 34" fill="none" xmlns="http://www.w3.org/2000/svg">
<path d="M0.164795 6.91113L2.08376 33.5874H9.52559L15.0602 20.3191L15.0368 33.5874H22.4903L35.1742 6.91113H27.3111L20.8288 22.7982L20.6181 6.91113H14.5336L8.00446 22.7982L7.74704 6.91113H0.164795Z" fill="#EF7800"/>
<path d="M63.2332 8.10938H56.2828L55.2648 12.9628H62.2152L63.2332 8.10938Z" fill="#EF7800"/>
<path d="M50.9588 33.5871H57.9092L61.7354 14.8369H54.7733L50.9588 33.5871Z" fill="#EF7800"/>
<path fill-rule="evenodd" clip-rule="evenodd" d="M37.5261 22.1347C38.0527 20.2143 39.2813 19.0969 41.1417 19.0969C42.8969 19.0969 43.7744 20.1794 43.7744 21.5411C43.7744 21.7157 43.7393 21.9601 43.7042 22.1347H37.5261ZM42.5107 27.9658C42.1597 28.5943 41.2821 29.2577 39.7727 29.2577C37.5963 29.2577 36.9294 27.6515 36.9294 25.7311H49.9292C50.2451 24.6138 50.2802 23.5663 50.2802 22.5886C50.2802 16.8972 45.4009 14.4414 41.364 14.4414C36.8357 14.4414 30.4353 17.386 30.4353 25.7078C30.4353 30.1073 32.8691 33.855 39.3281 33.855C47.1911 33.855 48.7357 29.1995 49.192 27.9774H42.5224L42.5107 27.9658Z" fill="#EF7800"/>
<path fill-rule="evenodd" clip-rule="evenodd" d="M75.5192 22.8447C75.5192 25.0096 74.6065 28.4663 71.9036 28.4663C70.0783 28.4663 69.3411 27.1395 69.3411 25.4984C69.3411 22.8796 70.2538 19.4927 73.0269 19.4927C74.8172 19.4927 75.5192 20.8196 75.5192 22.8447ZM78.9359 6.91113L78.8189 7.36505L76.7946 17.2581C75.566 15.2911 73.6003 14.6626 71.4941 14.6626C66.0531 14.6626 62.4375 19.4462 62.4375 26.3247C62.4375 28.5245 63.2215 33.8435 69.0954 33.8435C71.2015 33.8435 72.7695 32.8891 73.963 31.1782L73.612 33.5758H80.4219L85.9214 6.91113H78.9476H78.9359Z" fill="#EF7800"/>
<path d="M84.1663 33.5874H91.1167L93.3632 22.868C93.6792 21.2968 94.5567 20.1794 96.2768 20.1794C97.4001 20.1794 98.0319 20.7032 98.0319 21.8554C98.0319 22.3443 97.8564 23.0775 97.7511 23.5314L95.6449 33.5874H102.595L104.982 22.2861C105.263 20.9592 106.246 20.1911 107.615 20.1911C108.738 20.1911 109.405 20.7847 109.405 21.9369C109.405 22.4607 109.054 24.2414 108.984 24.5906L107.124 33.5874H114.074L116.285 22.9146C116.426 22.1115 116.707 20.8894 116.707 20.0514C116.707 16.3153 114.484 14.4531 110.938 14.4531C108.516 14.4531 106.422 15.7916 104.912 17.6771C104.456 15.4424 102.443 14.4531 100.056 14.4531C97.6692 14.4531 95.68 15.7916 94.2759 17.5025H94.2057L94.7206 14.8488H87.9808L84.1663 33.599V33.5874Z" fill="#EF7800"/>
<path d="M140.144 14.8369H133.193L131.579 22.4953C131.017 24.7998 130.877 28.1867 127.753 28.1867C126.735 28.1867 125.752 27.5931 125.752 26.4758C125.752 26.4758 125.752 25.533 126.032 24.5903L128.104 14.8369H121.153C119.047 24.8231 118.415 27.3138 118.415 28.885C118.415 32.3418 120.884 33.8548 124.043 33.8548C126.395 33.8548 128.56 32.7258 130.069 30.9451H130.14L129.578 33.5871H136.318L140.144 14.8369Z" fill="#EF7800"/>
<path d="M123.716 12.8587H129.905L130.888 8.20312H124.699L123.716 12.8587Z" fill="#EF7800"/>
<path d="M132.316 12.8587H138.494L139.477 8.20312H133.299L132.316 12.8587Z" fill="#EF7800"/>
<path d="M145.491 6.85254H152.5L146.966 33.587H140.003L145.491 6.85254Z" fill="#EF7800"/>
<path d="M156.338 6.85254H163.359L157.894 33.587H150.944L156.338 6.85254Z" fill="#EF7800"/>
<path fill-rule="evenodd" clip-rule="evenodd" d="M169.56 22.1816C170.087 20.2612 171.315 19.1439 173.176 19.1439C174.931 19.1439 175.808 20.2263 175.808 21.5881C175.808 21.7626 175.773 22.0071 175.738 22.1816H169.548H169.56ZM174.556 28.0127C174.205 28.6412 173.328 29.3046 171.818 29.3046C169.642 29.3046 168.975 27.6985 168.975 25.7781H181.975C182.291 24.6607 182.326 23.6132 182.326 22.6356C182.326 16.9442 177.447 14.5 173.41 14.5C168.881 14.5 162.481 17.433 162.481 25.7431C162.481 30.1426 164.927 33.902 171.385 33.902C179.249 33.902 180.781 29.2348 181.238 28.0127H174.568H174.556Z" fill="#EF7800"/>
<path d="M182.981 33.5868H189.932L191.511 25.719C192.319 21.9131 193.793 20.6561 196.742 20.6561C197.619 20.6561 198.567 20.7957 199.409 21.11L200.708 14.6504C200.076 14.4409 199.409 14.3711 198.251 14.3711C196.461 14.3711 194.179 15.7328 192.95 17.6533L192.88 18.0024L193.477 14.825H186.737L182.981 33.5985V33.5868Z" fill="#EF7800"/>
<path d="M214.937 6.27095H223.584C224.485 6.27095 224.918 6.62011 225.608 7.45811C225.854 7.76072 226.427 8.44741 227.106 9.28541L230.511 5.13034C229.341 3.69876 228.475 2.65126 228.475 2.65126C227.621 1.6154 226.696 0.928711 225 0.928711H214.925C213.533 0.928711 212.093 1.83654 212.093 3.61729C212.093 5.39803 213.509 6.28259 214.925 6.28259L214.937 6.27095Z" fill="black"/>
<path d="M246.096 28.3376H237.449C236.548 28.3376 236.104 27.9885 235.413 27.1505C235.168 26.8479 234.606 26.1612 233.916 25.3115L230.499 29.4666C231.669 30.8982 232.535 31.9573 232.535 31.9573C233.389 32.9932 234.313 33.6799 236.01 33.6799H246.085C247.477 33.6799 248.916 32.772 248.916 30.9913C248.916 29.2105 247.501 28.3376 246.085 28.3376H246.096Z" fill="#EF7800"/>
<path d="M228.802 19.0736C228.206 18.3986 227.925 17.8399 227.925 17.3045C227.925 16.7691 228.217 16.1872 228.802 15.5354C228.861 15.4656 234.442 8.63355 235.413 7.45803C236.104 6.62003 236.537 6.27087 237.449 6.27087H246.096C247.512 6.27087 248.928 5.39795 248.928 3.60557C248.928 1.81318 247.489 0.916992 246.096 0.916992H236.022C234.313 0.916992 233.401 1.60368 232.547 2.63954C232.547 2.63954 224.789 12.1485 223.958 13.0447C222.893 14.1969 222.367 14.6043 220.495 14.6043H214.937C213.544 14.6043 212.105 15.5121 212.105 17.3161C212.105 19.1202 213.521 19.9931 214.937 19.9931H220.495C222.355 19.9931 222.893 20.4004 223.958 21.5527C224.274 21.9019 225.596 23.4964 227.117 25.3353L230.534 21.1686C229.563 19.9931 228.837 19.0969 228.814 19.062L228.802 19.0736Z" fill="#EF7800"/>
<path d="M246.096 14.6157H240.538C238.678 14.6157 238.14 14.2083 237.075 13.0561C236.759 12.7185 235.437 11.1124 233.916 9.27344L230.499 13.4401C231.47 14.6273 232.196 15.5119 232.207 15.5351C232.792 16.1869 233.085 16.7921 233.085 17.3042C233.085 17.8164 232.816 18.3983 232.207 19.0734C232.149 19.1432 226.567 25.9752 225.596 27.1507C224.906 27.9887 224.473 28.3379 223.572 28.3379H214.925C213.509 28.3379 212.093 29.2108 212.093 30.9915C212.093 32.7723 213.533 33.6801 214.925 33.6801H225C226.696 33.6801 227.621 32.9934 228.475 31.9576C228.475 31.9576 236.244 22.4486 237.063 21.5524C238.128 20.4002 238.666 19.9928 240.527 19.9928H246.085C247.501 19.9928 248.916 19.1199 248.916 17.3159C248.916 15.5119 247.477 14.604 246.085 14.604L246.096 14.6157Z" fill="black"/>
</svg>
